<svg width="256" height="256" viewBox="0 0 256 256" fill="none" xmlns="http://www.w3.org/2000/svg">
<path d="M120 40V16C120 11.5817 123.582 8 128 8C132.418 8 136 11.5817 136 16V40C136 44.4183 132.418 48 128 48C123.582 48 120 44.4183 120 40Z" fill="black"/>
<path d="M176 128C176 101.49 154.51 80 128 80C101.49 80 80 101.49 80 128C80 154.51 101.49 176 128 176C154.51 176 176 154.51 176 128ZM192 128C192 163.346 163.346 192 128 192C92.6538 192 64 163.346 64 128C64 92.6538 92.6538 64 128 64C163.346 64 192 92.6538 192 128Z" fill="black"/>
<path d="M42.3428 42.3428C45.3694 39.3162 50.218 39.2221 53.3584 42.0596L53.6572 42.3428L69.6572 58.3428L69.9404 58.6416C72.7779 61.782 72.6838 66.6306 69.6572 69.6572C66.6306 72.6838 61.782 72.7779 58.6416 69.9404L58.3428 69.6572L42.3428 53.6572L42.0596 53.3584C39.2221 50.218 39.3162 45.3694 42.3428 42.3428Z" fill="black"/>
<path d="M58.6416 186.06C61.782 183.222 66.6306 183.316 69.6572 186.343C72.6838 189.369 72.7779 194.218 69.9404 197.358L69.6572 197.657L53.6572 213.657C50.533 216.781 45.467 216.781 42.3428 213.657C39.2186 210.533 39.2186 205.467 42.3428 202.343L58.3428 186.343L58.6416 186.06Z" fill="black"/>
<path d="M202.642 42.0596C205.782 39.2221 210.631 39.3162 213.657 42.3428C216.684 45.3694 216.778 50.218 213.94 53.3584L213.657 53.6572L197.657 69.6572C194.533 72.7814 189.467 72.7814 186.343 69.6572C183.219 66.533 183.219 61.467 186.343 58.3428L202.343 42.3428L202.642 42.0596Z" fill="black"/>
<path d="M186.343 186.343C189.369 183.316 194.218 183.222 197.358 186.06L197.657 186.343L213.657 202.343L213.94 202.642C216.778 205.782 216.684 210.631 213.657 213.657C210.631 216.684 205.782 216.778 202.642 213.94L202.343 213.657L186.343 197.657L186.06 197.358C183.222 194.218 183.316 189.369 186.343 186.343Z" fill="black"/>
<path d="M40 120C44.4183 120 48 123.582 48 128C48 132.418 44.4183 136 40 136H16C11.5817 136 8 132.418 8 128C8 123.582 11.5817 120 16 120H40Z" fill="black"/>
<path d="M120 240V216C120 211.582 123.582 208 128 208C132.418 208 136 211.582 136 216V240C136 244.418 132.418 248 128 248C123.582 248 120 244.418 120 240Z" fill="black"/>
<path d="M240 120C244.418 120 248 123.582 248 128C248 132.418 244.418 136 240 136H216C211.582 136 208 132.418 208 128C208 123.582 211.582 120 216 120H240Z" fill="black"/>
</svg>
