<svg width="256" height="256" viewBox="0 0 256 256" fill="none" xmlns="http://www.w3.org/2000/svg">
<path d="M105.782 20.4557C108.606 19.597 111.673 20.363 113.762 22.4479C115.785 24.4679 116.572 27.4085 115.843 30.1588L115.768 30.4245C111.157 45.6797 110.772 61.9 114.652 77.3571C118.533 92.8141 126.533 106.929 137.802 118.198C149.071 129.467 163.186 137.468 178.643 141.348C194.1 145.228 210.32 144.842 225.575 140.232C228.4 139.378 231.467 140.149 233.552 142.238C235.637 144.327 236.403 147.394 235.544 150.217C230.318 167.401 220.73 182.939 207.715 195.317C194.7 207.695 178.701 216.49 161.277 220.848C143.853 225.206 125.598 224.977 108.288 220.183C90.9786 215.39 75.2052 206.195 62.5049 193.495C49.8047 180.795 40.61 165.022 35.8164 147.713C31.0229 130.403 30.7936 112.147 35.1514 94.7223C39.5093 77.2981 48.306 61.2996 60.6836 48.2848C73.0613 35.27 88.5985 25.6819 105.782 20.4557ZM97.0664 41.0602C87.8287 45.624 79.4294 51.7909 72.2774 59.3112C61.8039 70.3238 54.3613 83.8615 50.6739 98.6051C46.9865 113.349 47.1803 128.796 51.2364 143.442C55.2924 158.088 63.072 171.435 73.8184 182.181C84.5648 192.928 97.9112 200.708 112.558 204.764C127.204 208.82 142.652 209.014 157.396 205.327C172.139 201.639 185.676 194.196 196.689 183.722C204.209 176.57 210.376 168.17 214.939 158.932C201.584 160.857 187.931 160.176 174.747 156.867C156.483 152.282 139.804 142.827 126.488 129.511C113.173 116.196 103.719 99.5171 99.1338 81.2526C95.8243 68.0689 95.1416 54.4156 97.0664 41.0602Z" fill="black"/>
</svg>
