<svg width="256" height="256" viewBox="0 0 256 256" fill="none" xmlns="http://www.w3.org/2000/svg">
<path d="M126.324 46.6982C142.404 40.0378 160.097 38.2959 177.168 41.6914C194.238 45.0868 209.918 53.4674 222.225 65.7744C234.532 78.0814 242.914 93.7617 246.309 110.832C249.705 127.902 247.962 145.596 241.301 161.676C234.641 177.756 223.362 191.499 208.89 201.169C194.645 210.687 177.935 215.838 160.815 215.996L160 216H71.9899C62.9152 215.989 53.9466 214.047 45.6793 210.306C37.412 206.564 30.035 201.106 24.0377 194.296C18.0405 187.485 13.5594 179.478 10.8932 170.804C8.22704 162.13 7.43632 152.987 8.57287 143.984C9.70948 134.981 12.7478 126.322 17.486 118.583C22.2243 110.844 28.5546 104.2 36.0563 99.0937C43.558 93.9874 52.0607 90.5346 60.9987 88.9648C67.715 87.7853 74.5621 87.6894 81.2819 88.6669C82.924 85.3804 84.7745 82.1866 86.8307 79.1093C96.5002 64.638 110.244 53.3586 126.324 46.6982ZM71.9996 128C71.9996 119.878 73.124 111.842 75.3053 104.109C71.4588 103.849 67.5843 104.053 63.7662 104.724C57.0628 105.901 50.6855 108.491 45.0592 112.32C39.4332 116.15 34.6861 121.132 31.1324 126.936C27.5787 132.741 25.2994 139.236 24.4469 145.988C23.5945 152.741 24.1876 159.597 26.1871 166.102C28.1868 172.608 31.5475 178.615 36.0455 183.723C40.5435 188.83 46.0766 192.923 52.277 195.729C58.4773 198.536 65.2035 199.992 72.0094 200H160L161.334 199.987C175.108 199.732 188.53 195.53 200.001 187.866C211.841 179.955 221.07 168.71 226.519 155.554C231.969 142.397 233.395 127.92 230.617 113.953C227.839 99.9866 220.981 87.1571 210.912 77.0878C200.842 67.0186 188.013 60.1619 174.047 57.3837C160.08 54.6056 145.603 56.031 132.447 61.4804C119.291 66.9299 108.046 76.1587 100.134 87.999C92.2229 99.8393 87.9996 113.76 87.9996 128C87.9996 132.418 84.4179 136 79.9996 136C75.5815 136 71.9996 132.418 71.9996 128Z" fill="black"/>
</svg>
