<svg width="256" height="256" viewBox="0 0 256 256" fill="none" xmlns="http://www.w3.org/2000/svg">
<path d="M96.7265 11.9598C98.6765 10.0121 101.492 9.20482 104.178 9.8241L104.92 9.99988C120.489 13.7639 134.367 22.615 144.348 35.162C154.486 47.9075 160.004 63.7139 160 79.9999L159.999 80.7723C159.995 81.5966 159.98 82.5647 159.91 83.5585C159.602 87.966 155.778 91.2889 151.371 90.9803C146.964 90.6716 143.641 86.8486 143.949 82.4413C143.996 81.7666 144 81.0461 144 79.9999V79.9979L143.988 78.8114C143.732 66.5645 139.465 54.7267 131.826 45.1229C126.462 38.379 119.648 33.0093 111.955 29.368C112.225 36.9334 111.304 44.5232 109.196 51.8534C105.824 63.5837 99.526 74.2648 90.8954 82.8954C82.2648 91.526 71.5837 97.8235 59.8534 101.196C52.5261 103.303 44.9393 104.224 37.3768 103.955C39.4199 108.266 42.01 112.314 45.0975 115.994C50.7831 122.77 57.9896 128.107 66.1298 131.568C70.1958 133.297 72.091 137.994 70.3622 142.06C68.6334 146.126 63.936 148.021 59.87 146.292C49.4089 141.844 40.1473 134.986 32.8407 126.278C25.7624 117.842 20.713 107.901 18.0741 97.2196L17.8261 96.1835C17.2045 93.4972 18.0102 90.68 19.9579 88.7284C21.9056 86.777 24.7208 85.9666 27.4081 86.5829C36.6631 88.7057 46.3059 88.442 55.4315 85.8182C64.5573 83.1944 72.8676 78.2962 79.5819 71.5819C86.2962 64.8676 91.1944 56.5573 93.8183 47.4315C96.36 38.591 96.6864 29.2656 94.7743 20.2772L94.5829 19.4081C93.9669 16.7218 94.7765 13.9076 96.7265 11.9598Z" fill="black"/>
<path d="M145.904 76.4767C159.859 71.3912 174.998 70.5033 189.452 73.922C203.907 77.3407 217.044 84.9167 227.242 95.715C237.441 106.513 244.254 120.062 246.842 134.688C249.43 149.314 247.679 164.377 241.805 178.02C235.931 191.662 226.191 203.286 213.787 211.457C201.384 219.628 186.859 223.988 172.006 224H91.9924C84.4484 223.993 76.9957 222.344 70.1526 219.168C63.3097 215.992 57.2394 211.366 52.3635 205.609C47.4876 199.853 43.923 193.104 41.9163 185.832C39.9095 178.56 39.5087 170.939 40.7424 163.496C41.9762 156.054 44.8148 148.968 49.0608 142.733C53.3068 136.497 58.8587 131.26 65.3313 127.385C71.804 123.51 79.0424 121.089 86.5442 120.291C91.3436 119.781 96.1773 119.943 100.907 120.762C103.383 114.292 106.743 108.157 110.922 102.54C119.788 90.6233 131.948 81.5622 145.904 76.4767ZM185.77 89.4923C174.356 86.7928 162.402 87.4942 151.382 91.5099C140.362 95.5256 130.76 102.68 123.759 112.09C116.758 121.5 112.666 132.754 111.987 144.463C111.731 148.874 107.948 152.242 103.537 151.986C99.1266 151.731 95.7583 147.948 96.0139 143.537C96.1545 141.112 96.4124 138.702 96.7815 136.316C93.9556 135.94 91.0869 135.899 88.2356 136.202C83.0422 136.755 78.031 138.43 73.55 141.112C69.069 143.795 65.225 147.421 62.2854 151.738C59.346 156.055 57.3807 160.96 56.5266 166.112C55.6725 171.265 55.9498 176.542 57.3391 181.576C58.7284 186.611 61.1968 191.283 64.5725 195.269C67.9482 199.254 72.1505 202.457 76.8879 204.655C81.6255 206.854 86.7852 207.995 92.008 208H171.993C183.722 207.991 195.191 204.548 204.986 198.096C214.78 191.644 222.471 182.465 227.11 171.693C231.748 160.92 233.131 149.025 231.087 137.476C229.044 125.927 223.664 115.228 215.611 106.701C207.557 98.1744 197.183 92.1919 185.77 89.4923Z" fill="black"/>
</svg>
