<svg width="256" height="256" viewBox="0 0 256 256" fill="none" xmlns="http://www.w3.org/2000/svg">
<path d="M87.7266 14.96C89.6766 13.0122 92.4921 12.2049 95.1777 12.8242L95.9199 13C111.489 16.764 125.367 25.6151 135.348 38.1621C145.486 50.9076 151.004 66.714 151 83L150.999 83.7725C150.996 84.5967 150.98 85.5648 150.91 86.5586C150.602 90.9661 146.779 94.289 142.371 93.9805C137.964 93.6717 134.641 89.8488 134.949 85.4414C134.996 84.7667 135 84.0462 135 83V82.998L134.988 81.8115C134.732 69.5646 130.465 57.7268 122.826 48.123C117.462 41.3791 110.649 36.0094 102.955 32.3682C103.225 39.9335 102.304 47.5234 100.196 54.8535C96.8236 66.5838 90.5261 77.2649 81.8955 85.8955C73.2649 94.5261 62.5838 100.824 50.8535 104.196C43.5262 106.303 35.9394 107.224 28.377 106.955C30.42 111.266 33.0102 115.314 36.0977 118.994C41.7832 125.77 48.9897 131.107 57.1299 134.568C61.1959 136.297 63.0911 140.995 61.3623 145.061C59.6335 149.126 54.9361 151.021 50.8701 149.292C40.409 144.844 31.1474 137.986 23.8408 129.278C16.7626 120.842 11.7132 110.901 9.07423 100.22L8.82619 99.1836C8.20461 96.4974 9.0103 93.6801 10.958 91.7285C12.9057 89.7772 15.7209 88.9667 18.4082 89.583C27.6632 91.7058 37.306 91.4421 46.4317 88.8184C55.5574 86.1946 63.8678 81.2963 70.582 74.582C77.2963 67.8677 82.1946 59.5574 84.8184 50.4316C87.3601 41.5912 87.6865 32.2658 85.7744 23.2773L85.583 22.4082C84.967 19.7219 85.7766 16.9077 87.7266 14.96Z" fill="black"/>
<path d="M94.9998 147C95.7692 133.731 100.407 120.978 108.34 110.315C116.273 99.6514 127.155 91.5441 139.643 86.9935C152.13 82.4429 165.677 81.6481 178.611 84.7073C191.545 87.7664 203.3 94.5457 212.426 104.208C221.552 113.871 227.649 125.994 229.965 139.082C232.28 152.169 230.713 165.648 225.457 177.856C220.201 190.063 211.486 200.464 200.387 207.776C189.288 215.087 176.291 218.989 163 219H82.9998C76.6164 218.994 70.3107 217.599 64.5204 214.912C58.7301 212.225 53.5937 208.31 49.4679 203.439C45.342 198.568 42.3254 192.858 40.6273 186.704C38.9293 180.551 38.5904 174.102 39.6344 167.804C40.6783 161.507 43.08 155.512 46.6728 150.235C50.2656 144.959 54.9635 140.528 60.4404 137.249C65.9172 133.97 72.042 131.921 78.3897 131.247C84.7373 130.572 91.1558 131.286 97.1998 133.34" fill="#F1F1F1"/>
<path d="M136.903 79.4766C150.859 74.3911 165.998 73.5032 180.452 76.9219C194.906 80.3406 208.044 87.9166 218.242 98.7148C228.441 109.513 235.254 123.062 237.842 137.688C240.43 152.313 238.679 167.377 232.805 181.02C226.931 194.662 217.191 206.286 204.787 214.457C192.384 222.628 177.859 226.988 163.006 227H82.9922C75.4481 226.993 67.9955 225.344 61.1524 222.168C54.3095 218.992 48.2392 214.366 43.3633 208.609C38.4874 202.853 34.9228 196.104 32.916 188.832C30.9093 181.56 30.5085 173.938 31.7422 166.496C32.976 159.054 35.8145 151.968 40.0606 145.732C44.3066 139.497 49.8585 134.26 56.3311 130.385C62.8038 126.51 70.0422 124.089 77.544 123.291C82.3434 122.781 87.1771 122.943 91.9072 123.762C94.3825 117.292 97.7433 111.157 101.922 105.54C110.788 93.6232 122.948 84.5621 136.903 79.4766ZM176.77 92.4922C165.356 89.7927 153.402 90.4941 142.382 94.5098C131.362 98.5254 121.76 105.68 114.759 115.09C107.758 124.5 103.665 135.754 102.986 147.463C102.731 151.874 98.9478 155.242 94.5371 154.986C90.1264 154.731 86.7581 150.948 87.0137 146.537C87.1543 144.112 87.4122 141.702 87.7813 139.315C84.9553 138.94 82.0867 138.899 79.2354 139.202C74.042 139.754 69.0308 141.43 64.5498 144.112C60.0687 146.795 56.2247 150.421 53.2852 154.738C50.3457 159.055 48.3805 163.96 47.5264 169.112C46.6723 174.265 46.9496 179.542 48.3389 184.576C49.7282 189.611 52.1966 194.283 55.5723 198.269C58.9479 202.254 63.1503 205.457 67.8877 207.655C72.6252 209.854 77.785 210.995 83.0078 211H162.993C174.722 210.991 186.191 207.548 195.985 201.096C205.78 194.644 213.471 185.465 218.109 174.692C222.748 163.92 224.13 152.025 222.087 140.476C220.043 128.926 214.663 118.228 206.61 109.701C198.557 101.174 188.183 95.1918 176.77 92.4922Z" fill="black"/>
<path d="M125 206C125 187.222 140.222 172 159 172H203C221.778 172 237 187.222 237 206C237 224.778 221.778 240 203 240H159C140.222 240 125 224.778 125 206Z" fill="#F1F1F1"/>
<path d="M229 206C229 191.641 217.359 180 203 180H159C144.641 180 133 191.641 133 206C133 220.359 144.641 232 159 232H203C217.359 232 229 220.359 229 206ZM245 206C245 229.196 226.196 248 203 248H159C135.804 248 117 229.196 117 206C117 182.804 135.804 164 159 164H203C226.196 164 245 182.804 245 206Z" fill="black"/>
</svg>
