<svg width="256" height="256" viewBox="0 0 256 256" fill="none" xmlns="http://www.w3.org/2000/svg">
<path d="M85.7266 12.96C87.6766 11.0122 90.4921 10.2049 93.1777 10.8242L93.9199 11C109.489 14.764 123.367 23.6151 133.348 36.1621C143.486 48.9076 149.004 64.714 149 81L148.999 81.7725C148.996 82.5967 148.98 83.5648 148.91 84.5586C148.602 88.9661 144.779 92.289 140.371 91.9805C135.964 91.6717 132.641 87.8488 132.949 83.4414C132.996 82.7667 133 82.0462 133 81V80.998L132.988 79.8115C132.732 67.5646 128.465 55.7268 120.826 46.123C115.462 39.3791 108.649 34.0094 100.955 30.3682C101.225 37.9335 100.304 45.5234 98.1963 52.8535C94.8236 64.5838 88.5261 75.2649 79.8955 83.8955C71.2649 92.5261 60.5838 98.8236 48.8535 102.196C41.5262 104.303 33.9394 105.224 26.377 104.955C28.42 109.266 31.0102 113.314 34.0977 116.994C39.7832 123.77 46.9897 129.107 55.1299 132.568C59.1959 134.297 61.0911 138.995 59.3623 143.061C57.6335 147.126 52.9361 149.021 48.8701 147.292C38.409 142.844 29.1474 135.986 21.8408 127.278C14.7626 118.842 9.71316 108.901 7.07423 98.2197L6.82619 97.1836C6.20461 94.4974 7.0103 91.6801 8.95802 89.7285C10.9057 87.7772 13.7209 86.9667 16.4082 87.583C25.6632 89.7058 35.306 89.4421 44.4317 86.8184C53.5574 84.1946 61.8678 79.2963 68.582 72.582C75.2963 65.8677 80.1946 57.5574 82.8184 48.4316C85.3601 39.5912 85.6865 30.2658 83.7744 21.2773L83.583 20.4082C82.967 17.7219 83.7766 14.9077 85.7266 12.96Z" fill="black"/>
<path d="M92.9998 145C93.7692 131.731 98.4067 118.978 106.34 108.315C114.273 97.6514 125.155 89.5441 137.643 84.9935C150.13 80.4429 163.677 79.6481 176.611 82.7073C189.545 85.7664 201.3 92.5457 210.426 102.208C219.552 111.871 225.649 123.994 227.965 137.082C230.28 150.169 228.713 163.648 223.457 175.856C218.201 188.063 209.486 198.464 198.387 205.776C187.288 213.087 174.291 216.989 161 217H80.9998C74.6164 216.994 68.3107 215.599 62.5204 212.912C56.7301 210.225 51.5937 206.31 47.4679 201.439C43.342 196.568 40.3254 190.858 38.6273 184.704C36.9293 178.551 36.5904 172.102 37.6344 165.804C38.6783 159.507 41.08 153.512 44.6728 148.235C48.2656 142.959 52.9635 138.528 58.4404 135.249C63.9172 131.97 70.042 129.921 76.3897 129.247C82.7373 128.572 89.1558 129.286 95.1998 131.34" fill="#F1F1F1"/>
<path d="M134.903 77.4766C148.859 72.3911 163.998 71.5032 178.452 74.9219C192.906 78.3406 206.044 85.9166 216.242 96.7148C226.441 107.513 233.254 121.062 235.842 135.688C238.43 150.313 236.679 165.377 230.805 179.02C224.931 192.662 215.191 204.286 202.787 212.457C190.384 220.628 175.859 224.988 161.006 225H80.9922C73.4481 224.993 65.9955 223.344 59.1524 220.168C52.3095 216.992 46.2392 212.366 41.3633 206.609C36.4874 200.853 32.9228 194.104 30.916 186.832C28.9093 179.56 28.5085 171.938 29.7422 164.496C30.976 157.054 33.8145 149.968 38.0606 143.732C42.3066 137.497 47.8585 132.26 54.3311 128.385C60.8038 124.51 68.0422 122.089 75.544 121.291C80.3434 120.781 85.1771 120.943 89.9072 121.762C92.3825 115.292 95.7433 109.157 99.9219 103.54C108.788 91.6232 120.948 82.5621 134.903 77.4766ZM174.77 90.4922C163.356 87.7927 151.402 88.4941 140.382 92.5098C129.362 96.5254 119.76 103.68 112.759 113.09C105.758 122.5 101.665 133.754 100.986 145.463C100.731 149.874 96.9478 153.242 92.5371 152.986C88.1264 152.731 84.7581 148.948 85.0137 144.537C85.1543 142.112 85.4122 139.702 85.7813 137.315C82.9553 136.94 80.0867 136.899 77.2354 137.202C72.042 137.754 67.0308 139.43 62.5498 142.112C58.0687 144.795 54.2247 148.421 51.2852 152.738C48.3457 157.055 46.3805 161.96 45.5264 167.112C44.6723 172.265 44.9496 177.542 46.3389 182.576C47.7282 187.611 50.1966 192.283 53.5723 196.269C56.9479 200.254 61.1503 203.457 65.8877 205.655C70.6252 207.854 75.785 208.995 81.0078 209H160.993C172.722 208.991 184.191 205.548 193.985 199.096C203.78 192.644 211.471 183.465 216.109 172.692C220.748 161.92 222.13 150.025 220.087 138.476C218.043 126.926 212.663 116.228 204.61 107.701C196.557 99.1743 186.183 93.1918 174.77 90.4922Z" fill="black"/>
<path d="M125 206C125 187.222 140.222 172 159 172H203C221.778 172 237 187.222 237 206C237 224.778 221.778 240 203 240H159C140.222 240 125 224.778 125 206Z" fill="#F1F1F1"/>
<path d="M229 206C229 191.641 217.359 180 203 180H159C144.641 180 133 191.641 133 206C133 220.359 144.641 232 159 232H203C217.359 232 229 220.359 229 206ZM245 206C245 229.196 226.196 248 203 248H159C135.804 248 117 229.196 117 206C117 182.804 135.804 164 159 164H203C226.196 164 245 182.804 245 206Z" fill="black"/>
</svg>
