<svg width="256" height="256" viewBox="0 0 256 256" fill="none" xmlns="http://www.w3.org/2000/svg">
<path d="M121.344 155.562C123.795 151.886 128.761 150.893 132.437 153.344C136.114 155.795 137.107 160.761 134.656 164.438L102.656 212.438C100.205 216.114 95.2387 217.107 91.5625 214.656C87.8863 212.205 86.8929 207.239 89.3437 203.562L121.344 155.562Z" fill="black"/>
<path d="M145.344 187.562C147.795 183.886 152.761 182.893 156.437 185.344C160.114 187.795 161.107 192.761 158.656 196.438L142.656 220.438C140.205 224.114 135.239 225.107 131.562 222.656C127.886 220.205 126.893 215.239 129.344 211.562L145.344 187.562Z" fill="black"/>
<path d="M129.904 20.4767C143.859 15.3912 158.998 14.5033 173.452 17.922C187.907 21.3407 201.044 28.9167 211.242 39.715C221.441 50.5133 228.254 64.0619 230.842 78.6876C233.43 93.3136 231.679 108.377 225.805 122.02C219.931 135.662 210.191 147.286 197.787 155.457C185.384 163.628 170.859 167.988 156.006 168H75.9924C68.4484 167.993 60.9957 166.344 54.1526 163.168C47.3097 159.992 41.2394 155.366 36.3635 149.61C31.4876 143.853 27.923 137.104 25.9162 129.832C23.9095 122.56 23.5087 114.939 24.7424 107.496C25.9762 100.054 28.8147 92.9683 33.0608 86.7326C37.3068 80.497 42.8587 75.26 49.3313 71.3849C55.804 67.5097 63.0424 65.0888 70.5442 64.2911C75.3436 63.7808 80.1773 63.9434 84.9074 64.7619C87.3827 58.2919 90.7435 52.1568 94.9221 46.5402C103.788 34.6233 115.948 25.5622 129.904 20.4767ZM169.77 33.4923C158.356 30.7928 146.402 31.4942 135.382 35.5099C124.362 39.5256 114.76 46.6801 107.759 56.09C100.758 65.5 96.6655 76.7541 95.9865 88.463C95.7308 92.8737 91.948 96.242 87.5373 95.9865C83.1266 95.7307 79.7583 91.948 80.0139 87.5372C80.1545 85.112 80.4124 82.7022 80.7815 80.3156C77.9555 79.9402 75.0869 79.8991 72.2356 80.2023C67.0422 80.7545 62.031 82.4297 57.55 85.1124C53.0689 87.7953 49.2249 91.4214 46.2854 95.7384C43.346 100.055 41.3807 104.96 40.5266 110.112C39.6725 115.265 39.9498 120.542 41.3391 125.576C42.7284 130.611 45.1968 135.283 48.5725 139.269C51.9482 143.254 56.1505 146.457 60.8879 148.655C65.6254 150.854 70.7852 151.995 76.008 152H155.993C167.722 151.991 179.191 148.548 188.986 142.096C198.78 135.644 206.471 126.465 211.11 115.693C215.748 104.92 217.131 93.0249 215.087 81.4757C213.044 69.9265 207.664 59.2281 199.611 50.7013C191.557 42.1745 181.183 36.1919 169.77 33.4923Z" fill="black"/>
</svg>
