<svg width="256" height="256" viewBox="0 0 256 256" fill="none" xmlns="http://www.w3.org/2000/svg">
<path d="M129.904 20.4766C143.859 15.3911 158.998 14.5032 173.452 17.9219C187.907 21.3406 201.044 28.9166 211.242 39.7149C221.441 50.5132 228.254 64.0617 230.842 78.6875C233.43 93.3134 231.679 108.377 225.805 122.02C219.931 135.662 210.191 147.286 197.787 155.457C185.384 163.628 170.859 167.988 156.006 168H75.9924C68.4484 167.993 60.9957 166.344 54.1526 163.168C47.3097 159.992 41.2394 155.366 36.3635 149.609C31.4876 143.853 27.923 137.104 25.9162 129.832C23.9095 122.56 23.5087 114.938 24.7424 107.496C25.9762 100.054 28.8147 92.9681 33.0608 86.7324C37.3068 80.4969 42.8587 75.2599 49.3313 71.3848C55.804 67.5096 63.0424 65.0887 70.5442 64.291C75.3436 63.7807 80.1773 63.9433 84.9074 64.7617C87.3827 58.2918 90.7435 52.1567 94.9221 46.5401C103.788 34.6232 115.948 25.5621 129.904 20.4766ZM169.77 33.4922C158.356 30.7927 146.402 31.4941 135.382 35.5098C124.362 39.5255 114.76 46.6799 107.759 56.0899C100.758 65.4999 96.6655 76.754 95.9865 88.4629C95.7308 92.8736 91.948 96.2419 87.5373 95.9863C83.1266 95.7306 79.7583 91.9478 80.0139 87.5371C80.1545 85.1119 80.4124 82.7021 80.7815 80.3154C77.9555 79.9401 75.0869 79.899 72.2356 80.2022C67.0422 80.7544 62.031 82.4296 57.55 85.1123C53.0689 87.7951 49.2249 91.4213 46.2854 95.7383C43.346 100.055 41.3807 104.96 40.5266 110.112C39.6725 115.265 39.9498 120.542 41.3391 125.576C42.7284 130.611 45.1968 135.283 48.5725 139.269C51.9482 143.254 56.1505 146.457 60.8879 148.655C65.6254 150.854 70.7852 151.995 76.008 152H155.993C167.722 151.991 179.191 148.548 188.986 142.096C198.78 135.644 206.471 126.465 211.11 115.692C215.748 104.92 217.131 93.0248 215.087 81.4756C213.044 69.9264 207.664 59.228 199.611 50.7012C191.557 42.1743 181.183 36.1918 169.77 33.4922Z" fill="black"/>
<path d="M121.36 155.536C123.719 152.022 128.446 150.937 132.116 153.14C135.787 155.342 137.054 160.023 135.062 163.758L134.86 164.116L118.13 192H144C146.882 192 149.542 193.55 150.962 196.058C152.337 198.488 152.344 201.453 150.995 203.883L150.86 204.116L126.86 244.116C124.587 247.905 119.672 249.133 115.884 246.86C112.095 244.587 110.866 239.672 113.14 235.884L129.87 208H104C101.118 208 98.4581 206.449 97.0381 203.941C95.6182 201.433 95.6568 198.355 97.1396 195.884L121.14 155.884L121.36 155.536Z" fill="black"/>
</svg>
