<svg width="256" height="256" viewBox="0 0 256 256" fill="none" xmlns="http://www.w3.org/2000/svg">
<path d="M120 192V63.9999C120 59.5816 123.582 55.9999 128 55.9999C132.418 55.9999 136 59.5816 136 63.9999V192C136 196.418 132.418 200 128 200C123.582 200 120 196.418 120 192Z" fill="black"/>
<path d="M146.343 34.3427C149.467 31.2185 154.533 31.2185 157.657 34.3427C160.781 37.4669 160.781 42.5329 157.657 45.6571L133.657 69.6571C130.631 72.6837 125.782 72.7778 122.642 69.9403L122.343 69.6571L98.3428 45.6571L98.0596 45.3583C95.2222 42.2179 95.3163 37.3692 98.3428 34.3427C101.369 31.3161 106.218 31.222 109.358 34.0595L109.657 34.3427L128 52.6854L146.343 34.3427Z" fill="black"/>
<path d="M122.642 186.059C125.782 183.222 130.631 183.316 133.657 186.343L157.657 210.343L157.94 210.641C160.778 213.782 160.684 218.631 157.657 221.657C154.631 224.684 149.782 224.778 146.642 221.94L146.343 221.657L128 203.314L109.657 221.657C106.533 224.781 101.467 224.781 98.3428 221.657C95.2186 218.533 95.2186 213.467 98.3428 210.343L122.343 186.343L122.642 186.059Z" fill="black"/>
<path d="M65.6414 91.9999C67.7813 88.2931 72.4399 86.9472 76.2078 88.8749L76.5701 89.0712L187.429 153.071L187.781 153.286C191.335 155.585 192.498 160.293 190.358 164C188.218 167.707 183.56 169.053 179.792 167.125L179.43 166.929L68.5701 102.929L68.2185 102.714C64.665 100.415 63.5014 95.7067 65.6414 91.9999Z" fill="black"/>
<path d="M61.9307 56.2723C66.0651 55.1652 70.3109 57.5076 71.6114 61.535L71.7276 61.9305L80.2979 93.9305C80.8542 96.0079 80.5509 98.2222 79.4561 100.073C78.4297 101.808 76.7882 103.087 74.8663 103.663L74.4786 103.769L41.9083 111.769C37.6176 112.823 33.2844 110.199 32.2305 105.908C31.1767 101.617 33.8012 97.2843 38.0919 96.2304L62.7296 90.1786L56.2725 66.0692L56.1758 65.6688C55.2895 61.5304 57.7963 57.3796 61.9307 56.2723Z" fill="black"/>
<path d="M214.092 144.23C218.383 143.177 222.715 145.801 223.769 150.092C224.823 154.382 222.199 158.715 217.909 159.769L193.27 165.82L199.728 189.931L199.825 190.331C200.711 194.469 198.204 198.62 194.07 199.727C189.935 200.835 185.69 198.492 184.389 194.465L184.273 194.069L175.703 162.069C175.146 159.992 175.449 157.778 176.544 155.927C177.639 154.076 179.433 152.743 181.522 152.23L214.092 144.23Z" fill="black"/>
<path d="M179.792 88.8749C183.56 86.9469 188.218 88.2932 190.358 91.9999C192.567 95.8263 191.256 100.72 187.429 102.929L76.5701 166.929C72.7437 169.138 67.8504 167.826 65.6414 164C63.4323 160.173 64.7437 155.28 68.5701 153.071L179.43 89.0712L179.792 88.8749Z" fill="black"/>
<path d="M32.2305 150.092C33.2515 145.935 37.3499 143.342 41.5059 144.142L41.9083 144.23L74.4786 152.23L74.8663 152.337C76.7882 152.913 78.4297 154.191 79.4561 155.927C80.5509 157.778 80.8542 159.992 80.2979 162.069L71.7276 194.069C70.5846 198.337 66.1985 200.87 61.9307 199.727C57.6629 198.584 55.1297 194.198 56.2725 189.931L62.7296 165.82L38.0919 159.769L37.6944 159.661C33.6406 158.445 31.2097 154.248 32.2305 150.092Z" fill="black"/>
<path d="M184.389 61.535C185.69 57.5076 189.935 55.1651 194.07 56.2723C198.204 57.3796 200.711 61.5305 199.825 65.6688L199.728 66.0692L193.27 90.1786L217.909 96.2304L218.306 96.3388C222.36 97.5552 224.79 101.752 223.769 105.908C222.748 110.065 218.65 112.657 214.495 111.857L214.092 111.769L181.522 103.769C179.433 103.256 177.639 101.924 176.544 100.073C175.449 98.2221 175.146 96.0079 175.703 93.9305L184.273 61.9305L184.389 61.535Z" fill="black"/>
</svg>
