<svg width="256" height="256" viewBox="0 0 256 256" fill="none" xmlns="http://www.w3.org/2000/svg">
<path d="M120 192C124.418 192 128 195.582 128 200C128 204.418 124.418 208 120 208H72C67.5817 208 64 204.418 64 200C64 195.582 67.5817 192 72 192H120Z" fill="black"/>
<path d="M184 192C188.418 192 192 195.582 192 200C192 204.418 188.418 208 184 208H160C155.582 208 152 204.418 152 200C152 195.582 155.582 192 160 192H184Z" fill="black"/>
<path d="M160 224C164.418 224 168 227.582 168 232C168 236.418 164.418 240 160 240H104C99.5817 240 96 236.418 96 232C96 227.582 99.5817 224 104 224H160Z" fill="black"/>
<path d="M129.904 28.4766C143.859 23.3911 158.998 22.5032 173.452 25.9219C187.907 29.3406 201.044 36.9166 211.242 47.7149C221.441 58.5132 228.254 72.0617 230.842 86.6875C233.43 101.313 231.679 116.377 225.805 130.02C219.931 143.662 210.191 155.286 197.787 163.457C185.384 171.628 170.859 175.988 156.006 176H75.9924C68.4484 175.993 60.9957 174.344 54.1526 171.168C47.3097 167.992 41.2394 163.366 36.3635 157.609C31.4876 151.853 27.923 145.104 25.9162 137.832C23.9095 130.56 23.5087 122.938 24.7424 115.496C25.9762 108.054 28.8147 100.968 33.0608 94.7324C37.3068 88.4969 42.8587 83.2599 49.3313 79.3848C55.804 75.5096 63.0424 73.0887 70.5442 72.291C75.3436 71.7807 80.1773 71.9433 84.9074 72.7617C87.3827 66.2918 90.7435 60.1567 94.9221 54.5401C103.788 42.6232 115.948 33.5621 129.904 28.4766ZM169.77 41.4922C158.356 38.7927 146.402 39.4941 135.382 43.5098C124.362 47.5255 114.76 54.6799 107.759 64.0899C100.758 73.4999 96.6655 84.754 95.9865 96.4629C95.7308 100.874 91.948 104.242 87.5373 103.986C83.1266 103.731 79.7583 99.9478 80.0139 95.5371C80.1545 93.1119 80.4124 90.7021 80.7815 88.3154C77.9555 87.9401 75.0869 87.899 72.2356 88.2022C67.0422 88.7544 62.031 90.4296 57.55 93.1123C53.0689 95.7951 49.2249 99.4213 46.2854 103.738C43.346 108.055 41.3807 112.96 40.5266 118.112C39.6725 123.265 39.9498 128.542 41.3391 133.576C42.7284 138.611 45.1968 143.283 48.5725 147.269C51.9482 151.254 56.1505 154.457 60.8879 156.655C65.6254 158.854 70.7852 159.995 76.008 160H155.993C167.722 159.991 179.191 156.548 188.986 150.096C198.78 143.644 206.471 134.465 211.11 123.692C215.748 112.92 217.131 101.025 215.087 89.4756C213.044 77.9264 207.664 67.228 199.611 58.7012C191.557 50.1743 181.183 44.1918 169.77 41.4922Z" fill="black"/>
</svg>
