<svg width="256" height="256" viewBox="0 0 256 256" fill="none" xmlns="http://www.w3.org/2000/svg">
<path d="M120 216C124.418 216 128 219.582 128 224C128 228.418 124.418 232 120 232H72C67.5817 232 64 228.418 64 224C64 219.582 67.5817 216 72 216H120Z" fill="black"/>
<path d="M190 216C194.418 216 198 219.582 198 224C198 228.418 194.418 232 190 232H166C161.582 232 158 228.418 158 224C158 219.582 161.582 216 166 216H190Z" fill="black"/>
<path d="M160 239C164.418 239 168 242.582 168 247C168 251.418 164.418 255 160 255H104C99.5817 255 96 251.418 96 247C96 242.582 99.5817 239 104 239H160Z" fill="black"/>
<path d="M129.903 60.4766C143.859 55.3911 158.998 54.5033 173.452 57.9219C187.906 61.3407 201.044 68.9166 211.242 79.7149C221.441 90.5132 228.254 104.062 230.842 118.688C233.43 133.313 231.679 148.377 225.805 162.02C219.931 175.662 210.191 187.286 197.787 195.457C185.384 203.628 170.859 207.988 156.006 208H75.9922C68.4481 207.993 60.9955 206.344 54.1524 203.168C47.3095 199.992 41.2392 195.366 36.3633 189.609C31.4874 183.853 27.9228 177.104 25.916 169.832C23.9093 162.56 23.5085 154.938 24.7422 147.496C25.976 140.054 28.8145 132.968 33.0606 126.732C37.3066 120.497 42.8585 115.26 49.3311 111.385C55.8038 107.51 63.0422 105.089 70.544 104.291C75.3434 103.781 80.1771 103.943 84.9072 104.762C87.3825 98.2918 90.7433 92.1567 94.9219 86.5401C103.788 74.6233 115.948 65.5621 129.903 60.4766ZM169.77 73.4922C158.356 70.7927 146.402 71.4941 135.382 75.5098C124.362 79.5255 114.76 86.68 107.759 96.0899C100.758 105.5 96.6653 116.754 95.9863 128.463C95.7306 132.874 91.9478 136.242 87.5371 135.986C83.1264 135.731 79.7581 131.948 80.0137 127.537C80.1543 125.112 80.4122 122.702 80.7813 120.315C77.9553 119.94 75.0867 119.899 72.2354 120.202C67.042 120.754 62.0308 122.43 57.5498 125.112C53.0687 127.795 49.2247 131.421 46.2852 135.738C43.3457 140.055 41.3805 144.96 40.5264 150.112C39.6723 155.265 39.9496 160.542 41.3389 165.576C42.7282 170.611 45.1966 175.283 48.5723 179.269C51.9479 183.254 56.1503 186.457 60.8877 188.655C65.6252 190.854 70.785 191.995 76.0078 192H155.993C167.722 191.991 179.191 188.548 188.985 182.096C198.78 175.644 206.471 166.465 211.109 155.692C215.748 144.92 217.13 133.025 215.087 121.476C213.043 109.926 207.663 99.2281 199.61 90.7012C191.557 82.1744 181.183 76.1918 169.77 73.4922Z" fill="black"/>
<path d="M83.7266 4.96002C85.6766 3.01226 88.4921 2.20501 91.1777 2.82428L91.9199 3.00006C107.489 6.76411 121.367 15.6152 131.348 28.1622L131.937 28.9122C137.963 36.6971 142.29 45.5846 144.719 55.002L145.063 56.3975C145.284 57.3307 145.487 58.2686 145.671 59.211L145.932 60.627L145.992 61.0342C146.507 65.2352 143.64 69.1462 139.424 69.8809C135.207 70.6155 131.186 67.9042 130.25 63.7764L130.169 63.3731L129.966 62.2715C129.823 61.5389 129.666 60.8096 129.494 60.084L129.226 58.9981C127.336 51.6729 123.97 44.7609 119.283 38.7061L118.826 38.1231C113.462 31.3792 106.649 26.0095 98.9551 22.3682C99.2254 29.9336 98.3038 37.5234 96.1963 44.8536C92.8236 56.5838 86.5261 67.265 77.8955 75.8956C69.2649 84.5262 58.5838 90.8237 46.8535 94.1964C39.5262 96.3031 31.9394 97.2244 24.377 96.9551C26.42 101.266 29.0102 105.314 32.0977 108.994L32.5703 109.551C34.9508 112.314 37.5878 114.83 40.4395 117.068L41.2959 117.728C42.1589 118.379 43.041 119.004 43.9404 119.605C47.6156 122.057 48.6066 127.024 46.1543 130.699C43.702 134.374 38.7348 135.366 35.0596 132.914C33.9039 132.143 32.771 131.338 31.6621 130.502L30.5606 129.654C26.8958 126.778 23.5074 123.544 20.4483 119.993L19.8408 119.278C12.7626 110.842 7.71316 100.901 5.07423 90.2198L4.82619 89.1837C4.20461 86.4974 5.0103 83.6801 6.95802 81.7286C8.90575 79.7772 11.7209 78.9668 14.4082 79.5831C23.6632 81.7059 33.306 81.4421 42.4317 78.8184C51.5574 76.1946 59.8678 71.2964 66.582 64.5821C73.2963 57.8678 78.1946 49.5574 80.8184 40.4317C83.3601 31.5912 83.6865 22.2658 81.7744 13.2774L81.583 12.4083C80.967 9.72194 81.7766 6.90773 83.7266 4.96002Z" fill="black"/>
</svg>
