<svg width="24" height="24" viewBox="0 0 24 24" fill="none" xmlns="http://www.w3.org/2000/svg">
<path d="M21.375 16.4062C21.2893 16.4551 21.1949 16.4866 21.097 16.4989C20.9992 16.5112 20.8999 16.504 20.8048 16.4779C20.7097 16.4518 20.6207 16.4072 20.5429 16.3466C20.4651 16.2861 20.3999 16.2107 20.3513 16.125L18.57 13.0125C17.5344 13.7127 16.3921 14.2402 15.1875 14.5744L15.7378 17.8762C15.7541 17.9734 15.751 18.0729 15.7288 18.1689C15.7065 18.2649 15.6656 18.3556 15.6083 18.4358C15.551 18.516 15.4785 18.5841 15.3949 18.6362C15.3112 18.6884 15.2182 18.7235 15.1209 18.7397C15.0809 18.7462 15.0405 18.7497 15 18.75C14.8226 18.7497 14.651 18.6866 14.5157 18.5717C14.3805 18.4569 14.2903 18.2978 14.2612 18.1228L13.7203 14.8809C12.5796 15.0397 11.4223 15.0397 10.2816 14.8809L9.74062 18.1228C9.71152 18.2982 9.62108 18.4575 9.48543 18.5723C9.34979 18.6872 9.17775 18.7502 9 18.75C8.95854 18.7498 8.91716 18.7464 8.87625 18.7397C8.77903 18.7235 8.68595 18.6884 8.60232 18.6362C8.51869 18.5841 8.44616 18.516 8.38887 18.4358C8.33158 18.3556 8.29066 18.2649 8.26844 18.1689C8.24622 18.0729 8.24314 17.9734 8.25937 17.8762L8.8125 14.5744C7.6084 14.2391 6.46669 13.7107 5.43187 13.0097L3.65625 16.125C3.55679 16.2983 3.39257 16.425 3.1997 16.4772C3.00683 16.5294 2.80111 16.5029 2.62781 16.4034C2.45451 16.304 2.32781 16.1397 2.2756 15.9469C2.22338 15.754 2.24992 15.5483 2.34937 15.375L4.22438 12.0937C3.56578 11.5247 2.96017 10.8972 2.415 10.2187C2.34701 10.1428 2.29521 10.0539 2.26275 9.95726C2.23029 9.86066 2.21785 9.75846 2.2262 9.65689C2.23456 9.55533 2.26352 9.45654 2.31132 9.36654C2.35912 9.27654 2.42477 9.19723 2.50424 9.13344C2.58372 9.06966 2.67536 9.02274 2.77357 8.99555C2.87178 8.96836 2.97451 8.96147 3.07547 8.9753C3.17643 8.98913 3.27352 9.02339 3.3608 9.07599C3.44808 9.12859 3.52373 9.19843 3.58313 9.28124C5.13938 11.2069 7.86187 13.5 12 13.5C16.1381 13.5 18.8606 11.204 20.4169 9.28124C20.4756 9.19673 20.5511 9.12522 20.6386 9.07113C20.7262 9.01705 20.8239 8.98157 20.9257 8.96688C21.0276 8.95219 21.1314 8.95862 21.2306 8.98576C21.3299 9.0129 21.4225 9.06018 21.5027 9.12465C21.5829 9.18912 21.649 9.2694 21.6968 9.3605C21.7446 9.45161 21.7732 9.55158 21.7808 9.6542C21.7883 9.75683 21.7747 9.8599 21.7407 9.95702C21.7067 10.0541 21.653 10.1432 21.5831 10.2187C21.038 10.8972 20.4323 11.5247 19.7738 12.0937L21.6488 15.375C21.6991 15.4605 21.7319 15.5552 21.7454 15.6535C21.7589 15.7518 21.7527 15.8519 21.7273 15.9478C21.7018 16.0437 21.6575 16.1336 21.5971 16.2123C21.5366 16.291 21.4611 16.3569 21.375 16.4062Z" fill="#26272D"/>
</svg>
