<svg width="24" height="24" viewBox="0 0 24 24" fill="none" xmlns="http://www.w3.org/2000/svg">
<path fill-rule="evenodd" clip-rule="evenodd" d="M1.33333 0C0.596954 0 0 0.596954 0 1.33333V22.6667C0 23.403 0.596954 24 1.33333 24H7.72386C7.90067 24 8.07024 23.9298 8.19526 23.8047L15.1464 16.8536C15.4614 16.5386 16 16.7617 16 17.2071V22.6667C16 23.403 16.597 24 17.3333 24H22.6667C23.403 24 24 23.403 24 22.6667V1.33333C24 0.596954 23.403 0 22.6667 0H17.3333C16.597 0 16 0.596954 16 1.33333V6.79289C16 7.23835 15.4614 7.46143 15.1464 7.14645L8.19526 0.195262C8.07024 0.0702379 7.90067 0 7.72386 0H1.33333ZM8 9.33333C8 8.59695 8.59695 8 9.33333 8H14.6667C15.403 8 16 8.59695 16 9.33333V14.6667C16 15.403 15.403 16 14.6667 16H9.33333C8.59695 16 8 15.403 8 14.6667V9.33333Z" fill="#26272D"/>
</svg>
