<?xml version="1.0" encoding="utf-8" ?>
<svg xmlns="http://www.w3.org/2000/svg" xmlns:xlink="http://www.w3.org/1999/xlink" width="512" height="512">
	<clipPath id="cl_29">
		<rect width="512" height="512"/>
	</clipPath>
	<g clip-path="url(#cl_29)">
		<path fill="#E0B441" transform="matrix(-1.88701 -0.662712 -0.662712 1.88701 256 256)" d="M-60.2458 -80.2458L60.2458 -80.2458C71.2915 -80.2458 80.2458 -71.2915 80.2458 -60.2458L80.2458 60.2458C80.2458 71.2915 71.2915 80.2458 60.2458 80.2458L-60.2458 80.2458C-71.2915 80.2458 -80.2458 71.2915 -80.2458 60.2458L-80.2458 -60.2458C-80.2458 -71.2915 -71.2915 -80.2458 -60.2458 -80.2458Z"/>
		<path fill="none" stroke="#2F714B" stroke-width="26.564865" stroke-miterlimit="10" transform="matrix(-1.88701 -0.662712 -0.662712 1.88701 256 256)" d="M-60.2458 -80.2458L60.2458 -80.2458C71.2915 -80.2458 80.2458 -71.2915 80.2458 -60.2458L80.2458 60.2458C80.2458 71.2915 71.2915 80.2458 60.2458 80.2458L-60.2458 80.2458C-71.2915 80.2458 -80.2458 71.2915 -80.2458 60.2458L-80.2458 -60.2458C-80.2458 -71.2915 -71.2915 -80.2458 -60.2458 -80.2458Z"/>
	</g>
</svg>
