<?xml version="1.0" encoding="utf-8" ?>
<svg xmlns="http://www.w3.org/2000/svg" xmlns:xlink="http://www.w3.org/1999/xlink" width="512" height="512">
	<clipPath id="cl_3b">
		<rect width="512" height="512"/>
	</clipPath>
	<g clip-path="url(#cl_3b)">
		<path fill="#E0B441" transform="matrix(-2 -0.00124866 -0.00124866 2 256 256)" d="M-60.2458 -80.2458L60.2458 -80.2458C71.2915 -80.2458 80.2458 -71.2915 80.2458 -60.2458L80.2458 60.2458C80.2458 71.2915 71.2915 80.2458 60.2458 80.2458L-60.2458 80.2458C-71.2915 80.2458 -80.2458 71.2915 -80.2458 60.2458L-80.2458 -60.2458C-80.2458 -71.2915 -71.2915 -80.2458 -60.2458 -80.2458Z"/>
		<path fill="none" stroke="#2F714B" stroke-width="14.256757" stroke-miterlimit="10" transform="matrix(-2 -0.00124866 -0.00124866 2 256 256)" d="M-60.2458 -80.2458L60.2458 -80.2458C71.2915 -80.2458 80.2458 -71.2915 80.2458 -60.2458L80.2458 60.2458C80.2458 71.2915 71.2915 80.2458 60.2458 80.2458L-60.2458 80.2458C-71.2915 80.2458 -80.2458 71.2915 -80.2458 60.2458L-80.2458 -60.2458C-80.2458 -71.2915 -71.2915 -80.2458 -60.2458 -80.2458Z"/>
	</g>
</svg>
